<?xml version="1.0" encoding="utf-8"?>
<!-- Generator: Adobe Illustrator 18.0.0, SVG Export Plug-In . SVG Version: 6.00 Build 0)  -->
<!DOCTYPE svg PUBLIC "-//W3C//DTD SVG 1.1//EN" "http://www.w3.org/Graphics/SVG/1.1/DTD/svg11.dtd">
<svg version="1.1" id="Layer_1" xmlns="http://www.w3.org/2000/svg" xmlns:xlink="http://www.w3.org/1999/xlink" x="0px" y="0px"
	 viewBox="0 0 250 250" enable-background="new 0 0 250 250" xml:space="preserve">
<g>
	<path fill="#166638" d="M193.2,70.9c46.6-8.7,46.7,34.1,16,52.2c-10.5,6.1-30.5,14.4-30.5,14.4c41.8-8.6,38.4,31.9,17.8,46.1
		c-44.7,30.9-154.7,54.3-154.7,54.3s16.2-164,108.5-216.7c42.4-24.3,73.1-20.9,80.5,1C241.2,52.6,193.2,70.9,193.2,70.9z"/>
	<path fill="#166638" d="M203.1,68.1c1.9-0.1,3.7-0.1,5.6,0.1c2.7,0.2,5.3,0.7,7.9,1.5c2.6,0.8,5.1,2,7.4,3.7
		c2.2,1.7,4.2,3.8,5.5,6.3c1.4,2.5,2.2,5.2,2.6,7.9c0.3,2.8,0.2,5.5-0.3,8.2c-0.5,2.7-1.3,5.3-2.4,7.8c-2.2,5-5.3,9.4-9.1,13.2
		c-1.9,1.9-3.9,3.6-6.1,5.2c-2.1,1.6-4.5,3-6.7,4.2c-2.3,1.3-4.6,2.4-6.9,3.6c-2.3,1.1-4.7,2.2-7,3.3c-4.7,2.2-9.4,4.2-14.2,6.2
		l-1.2-3.8l0,0c5.1-1,10.3-1.6,15.6-1c2.7,0.3,5.3,1,7.9,2.1c2.5,1.1,4.9,2.8,6.8,4.9c1.9,2.1,3.3,4.7,4.1,7.4
		c0.8,2.7,1.1,5.5,1,8.2c-0.2,5.5-1.8,10.7-4.2,15.5c-2.5,4.8-5.9,9.1-10.2,12.5l-0.8,0.6l-0.2,0.2l-0.3,0.2l-0.4,0.3l-1.6,1.1
		c-1.1,0.7-2,1.4-3.2,2.1l-3.3,2.1c-1.1,0.7-2.2,1.3-3.3,1.9c-4.4,2.6-9,4.9-13.5,7.2c-4.6,2.2-9.2,4.4-13.9,6.4c-2.3,1-4.7,2-7,3
		c-2.3,1-4.7,1.9-7.1,2.9c-4.7,1.9-9.5,3.7-14.2,5.4c-4.8,1.7-9.5,3.4-14.3,5.1c-4.8,1.6-9.6,3.2-14.4,4.8c-9.6,3.1-19.3,6-29,8.9
		c-4.9,1.4-9.7,2.8-14.6,4.2c-4.9,1.3-9.7,2.7-14.8,4l-9.8,2.5l0.8-10.6l0,0c0.3-2.3,0.6-4.4,0.9-6.6c0.3-2.2,0.7-4.3,1.1-6.4
		c0.7-4.3,1.5-8.5,2.4-12.8c1.7-8.5,3.7-16.9,5.8-25.3c4.3-16.8,9.4-33.3,15.5-49.5c6.1-16.2,13.3-32,21.9-47.1
		c4.3-7.6,9-14.9,14-21.9c5-7.1,10.6-13.8,16.5-20.2c6-6.4,12.4-12.3,19.3-17.7c6.9-5.3,14.4-10,22.1-14c7.7-4,15.7-7.5,24.1-10.1
		c8.4-2.6,17.1-4.3,26.1-3.8c4.5,0.2,9,1.1,13.3,2.8c4.3,1.8,8.2,4.6,11.1,8.3c2.9,3.7,4.7,8.1,5.6,12.6c0.9,4.5,0.5,9.3-1,13.7
		c-1.5,4.4-3.9,8.2-6.8,11.6c-2.9,3.4-6.2,6.4-9.6,9c-3.5,2.6-7.2,5-11,7.1C204.8,67.3,203.9,67.7,203.1,68.1z M192.6,69.3
		c3.8-1.6,7.6-3.5,11.2-5.5c3.6-2.1,7.1-4.4,10.4-6.9c3.3-2.6,6.3-5.4,8.9-8.6c2.6-3.2,4.7-6.7,5.9-10.4c1.2-3.8,1.4-7.7,0.6-11.6
		c-0.8-3.9-2.4-7.5-4.9-10.5c-2.4-3-5.7-5.2-9.3-6.6c-3.6-1.4-7.6-2.1-11.7-2.2c-8.1-0.2-16.3,1.5-24.2,4.1
		c-7.9,2.6-15.5,6.1-22.9,10.1c-7.4,4-14.3,8.6-20.8,13.8c-6.4,5.3-12.5,11.1-18,17.4c-5.5,6.3-10.6,12.9-15.2,19.9
		c-4.6,7-8.9,14.2-12.8,21.6c-7.8,14.9-14.2,30.5-19.6,46.4c-5.4,15.9-9.8,32.2-13.3,48.7c-1.8,8.2-3.3,16.5-4.6,24.8
		c-0.7,4.2-1.3,8.3-1.8,12.5c-0.3,2.1-0.5,4.2-0.8,6.2c-0.2,2-0.5,4.2-0.6,6.1l0,0l-9-8.1c4.8-0.9,9.8-1.8,14.6-2.8
		c4.9-1,9.8-2,14.7-3.1c4.9-1.1,9.7-2.2,14.6-3.4c4.9-1.2,9.7-2.4,14.5-3.6c4.8-1.2,9.7-2.6,14.5-3.9c4.8-1.3,9.6-2.8,14.4-4.2
		c4.8-1.5,9.5-3,14.2-4.6c2.4-0.8,4.7-1.6,7.1-2.5c2.4-0.8,4.7-1.7,7-2.6c4.7-1.7,9.3-3.6,13.8-5.6c4.5-2,9-4.1,13.4-6.4
		c1.1-0.6,2.2-1.1,3.3-1.7l3.2-1.8c1.1-0.6,2.1-1.3,3.2-1.9l1.6-1l0.4-0.3l0.1-0.1l0,0c0,0-0.1,0.1,0,0l0.2-0.1l0.7-0.5
		c3.7-2.7,6.8-6.3,9.1-10.3c2.3-4.1,3.7-8.7,4-13.2c0.3-4.6-0.8-9.2-3.6-12.5c-1.4-1.7-3.2-3-5.2-4c-2-0.9-4.3-1.5-6.6-1.8
		c-4.7-0.6-9.6-0.2-14.3,0.8l0,0l-18.9,3.5l17.7-7.3c4.7-1.9,9.4-4,14.1-6.1c2.3-1.1,4.6-2.1,6.9-3.2c2.3-1.1,4.6-2.3,6.8-3.5
		c2.3-1.2,4.4-2.5,6.4-3.9c2-1.4,3.9-3,5.6-4.8c3.5-3.5,6.4-7.5,8.4-12c1-2.2,1.7-4.6,2.2-6.9c0.4-2.4,0.5-4.8,0.3-7.1
		c-0.3-2.3-1-4.6-2.1-6.6c-1.1-2-2.7-3.8-4.6-5.2c-1.9-1.4-4-2.5-6.3-3.2c-2.3-0.7-4.7-1.2-7.2-1.4c-2.5-0.2-4.9-0.2-7.4,0
		c-1.2,0.1-2.5,0.2-3.7,0.4c-1.2,0.2-2.5,0.4-3.7,0.6l-15,2.6L192.6,69.3z"/>
</g>
</svg>
