<?xml version="1.0" encoding="utf-8"?>
<!-- Generator: Adobe Illustrator 18.0.0, SVG Export Plug-In . SVG Version: 6.00 Build 0)  -->
<!DOCTYPE svg PUBLIC "-//W3C//DTD SVG 1.1//EN" "http://www.w3.org/Graphics/SVG/1.1/DTD/svg11.dtd">
<svg version="1.1" id="Layer_1" xmlns="http://www.w3.org/2000/svg" xmlns:xlink="http://www.w3.org/1999/xlink" x="0px" y="0px"
	 viewBox="0 0 100 100" enable-background="new 0 0 100 100" xml:space="preserve">
<path fill="#939393" d="M100,56.2V43.7l-14.9-6.2c-0.4-1.2-0.9-2.3-1.4-3.4l6-15l-8.8-8.8L66,16.3c-1.1-0.6-2.3-1-3.5-1.4L56.2,0
	H43.7l-6.2,14.8c-1.2,0.4-2.4,0.9-3.6,1.5l-14.9-6l-8.8,8.8l6.1,14.7c-0.6,1.2-1.1,2.4-1.5,3.7L0,43.8v12.5l14.7,6.1
	c0.5,1.3,0.9,2.5,1.5,3.7L10.3,81l8.8,8.8l14.8-6.1c1.2,0.6,2.4,1,3.6,1.4l6.3,14.8h12.5l6.2-14.9c1.2-0.4,2.4-0.9,3.5-1.4l15,6
	l8.8-8.8l-6.2-14.9c0.5-1.1,1-2.3,1.4-3.4L100,56.2z M49.9,68.8c-10.4,0-18.8-8.4-18.8-18.8s8.4-18.8,18.8-18.8S68.7,39.6,68.7,50
	S60.3,68.8,49.9,68.8z"/>
</svg>
