<?xml version="1.0" encoding="utf-8"?>
<!-- Generator: Adobe Illustrator 18.0.0, SVG Export Plug-In . SVG Version: 6.00 Build 0)  -->
<!DOCTYPE svg PUBLIC "-//W3C//DTD SVG 1.1//EN" "http://www.w3.org/Graphics/SVG/1.1/DTD/svg11.dtd">
<svg version="1.1" id="Layer_1" xmlns="http://www.w3.org/2000/svg" xmlns:xlink="http://www.w3.org/1999/xlink" x="0px" y="0px"
	 viewBox="0 0 100 100" enable-background="new 0 0 100 100" xml:space="preserve">
<g>
	<path fill="#2ECC71" d="M75.5,23.1C69.7,11.4,57.8,7.5,50.4,7.5c-7.4,0-19.3,4-25.1,15.7c-5.8,11.7-1.1,22.5,4.5,29.7
		s6.5,10.4,6.9,12.2c0.4,1.8-0.8,4.5,1.4,6.4c2.2,1.9,12.4,2.2,12.4,2.2s10.2-0.3,12.3-2.2c2.2-1.9,1-4.7,1.4-6.4
		c0.4-1.8,1.2-5,6.9-12.2C76.6,45.6,81.3,34.8,75.5,23.1z"/>
	<path fill="#2ECC71" d="M63.5,75.5c-0.3-1.2-1.5-1.9-2.5-1.7v0c-4,1.1-10.5,1-10.5,1s-5.9,0-10.4-1l0,0c-1.3-0.2-2.3,0.5-2.6,1.7
		c-0.3,1.2,0.4,2.4,1.6,2.7c0.1,0,0.2,0,0.3,0.1c5,1.1,10.8,1.1,11,1.1c0.2,0,6,0,11-1.1c0.1,0,0.3,0,0.4-0.1
		C63,77.9,63.7,76.7,63.5,75.5z"/>
	<path fill="#2ECC71" d="M63.4,81.4c-0.3-1.2-1.3-1.9-2.6-1.7l0,0c-4.5,1.1-10.3,1-10.3,1s-5.8,0-10.3-1l0,0
		c-1.3-0.2-2.3,0.5-2.6,1.7c-0.3,1.2,0.4,2.4,1.6,2.7c0.1,0,0.2,0,0.3,0.1c5,1.1,10.8,1.1,11,1.1c0.2,0,6,0,11-1.1
		c0.1,0,0.2,0,0.3-0.1C62.9,83.8,63.6,82.6,63.4,81.4z"/>
	<path fill="#2ECC71" d="M61.4,87.5c-0.4-1-1.4-1.7-2.4-1.5v0c-3,0.9-8.8,0.9-8.8,0.9s-4.9,0-8.9-0.9l0,0c-1.2-0.2-1.9,0.5-2.3,1.5
		c-0.9,2.4,4.3,5.6,11.2,5.6C57.2,93.1,62.3,89.9,61.4,87.5z"/>
</g>
</svg>
