<?xml version="1.0" encoding="utf-8"?>
<!-- Generator: Adobe Illustrator 18.0.0, SVG Export Plug-In . SVG Version: 6.00 Build 0)  -->
<!DOCTYPE svg PUBLIC "-//W3C//DTD SVG 1.1//EN" "http://www.w3.org/Graphics/SVG/1.1/DTD/svg11.dtd">
<svg version="1.1" id="Layer_1" xmlns="http://www.w3.org/2000/svg" xmlns:xlink="http://www.w3.org/1999/xlink" x="0px" y="0px"
	 viewBox="0 0 640 1136" enable-background="new 0 0 640 1136" xml:space="preserve">
<g>
	<path fill="#FFFFFF" d="M513.9,452.8h-87.7V376c0-28.2-23-51.2-51.2-51.2H329c-18.6,0-35.8,10.2-44.8,26.9l-57,105
		c-5.8-2.6-12.2-3.8-19.2-3.8h-80c-28.2,0-51.2,23-51.2,51.2v217.6c0,28.2,23,51.2,51.2,51.2h80c23,0,42.2-14.7,48.6-35.2l80,32
		c5.8,2.6,12.2,3.8,18.6,3.8h158.1c28.2,0,51.2-23,51.2-51.2V504C565.1,475.8,542.1,452.8,513.9,452.8z M128,721.6V504h79.4
		c0,0.6,0,1.3,0,1.3v177.9c0,2.6,0,4.5,0.6,7v31.4H128z M513.9,721.6H355.8l-96.6-38.4V504L329,376H375v128h138.9V721.6z"/>
	<circle fill="#FFFFFF" cx="169" cy="678.1" r="25.6"/>
</g>
</svg>
