<?xml version="1.0" encoding="utf-8"?>
<!-- Generator: Adobe Illustrator 18.0.0, SVG Export Plug-In . SVG Version: 6.00 Build 0)  -->
<!DOCTYPE svg PUBLIC "-//W3C//DTD SVG 1.1//EN" "http://www.w3.org/Graphics/SVG/1.1/DTD/svg11.dtd">
<svg version="1.1" id="Layer_1" xmlns="http://www.w3.org/2000/svg" xmlns:xlink="http://www.w3.org/1999/xlink" x="0px" y="0px"
	 viewBox="0 0 612 616.1" enable-background="new 0 0 612 616.1" xml:space="preserve">
<path fill="#FFFFFF" d="M566.8,0H45.2C20.6,0,0,19.7,0,44.4v527.3c0,24.7,20.6,44.4,45.2,44.4h521.5c24.7,0,45.2-19.7,45.2-44.4
	V44.4C612,19.7,591.4,0,566.8,0z M185.9,515.8H93.8v-278h92.1V515.8z M139.8,199.9c-32.1,0-51.8-21.4-51.8-47.7
	c0-27.1,21.4-47.7,52.6-47.7c32.1,0,51,20.6,51.8,47.7C192.5,178.5,171.9,199.9,139.8,199.9z M519.1,515.8h-92.1V366.9
	c0-37-13.2-62.5-46.9-62.5c-25.5,0-41.1,17.3-47.7,33.7c-2.5,5.8-3.3,14-3.3,22.2v155.5h-92.1c0,0,0.8-251.7,0.8-278h92.1v39.1
	c12.5-18.9,34-45.6,83.1-45.6c60.9,0,106.1,39.5,106.1,125V515.8z"/>
</svg>
