<?xml version="1.0" encoding="utf-8"?>
<!-- Generator: Adobe Illustrator 18.0.0, SVG Export Plug-In . SVG Version: 6.00 Build 0)  -->
<!DOCTYPE svg PUBLIC "-//W3C//DTD SVG 1.1//EN" "http://www.w3.org/Graphics/SVG/1.1/DTD/svg11.dtd">
<svg version="1.1"
	 id="svg3070" xmlns:dc="http://purl.org/dc/elements/1.1/" xmlns:cc="http://creativecommons.org/ns#" xmlns:rdf="http://www.w3.org/1999/02/22-rdf-syntax-ns#" xmlns:svg="http://www.w3.org/2000/svg" xmlns:sodipodi="http://sodipodi.sourceforge.net/DTD/sodipodi-0.dtd" xmlns:inkscape="http://www.inkscape.org/namespaces/inkscape" sodipodi:docname="New document 4" inkscape:version="0.48.0 r9654"
	 xmlns="http://www.w3.org/2000/svg" xmlns:xlink="http://www.w3.org/1999/xlink" x="0px" y="0px" viewBox="107.6 1.6 75.8 76.2"
	 enable-background="new 107.6 1.6 75.8 76.2" xml:space="preserve">
<sodipodi:namedview  fit-margin-left="0" fit-margin-top="0" showgrid="false" inkscape:cy="33.703355" inkscape:cx="142.93233" inkscape:zoom="2.8" borderopacity="1.0" bordercolor="#666666" pagecolor="#ffffff" id="base" inkscape:window-maximized="1" inkscape:window-y="-8" inkscape:window-x="-8" inkscape:window-height="750" inkscape:window-width="1280" inkscape:current-layer="layer1" inkscape:document-units="px" inkscape:pageopacity="0.0" fit-margin-right="0" inkscape:pageshadow="2" fit-margin-bottom="0">
	</sodipodi:namedview>
<g id="layer1" transform="translate(-200.55198,-393.96227)" inkscape:label="Layer 1" inkscape:groupmode="layer">
	<g id="g3019" transform="matrix(1.018827,0,0,-1.018827,170.5996,498.03288)">
		<path id="path14" inkscape:connector-curvature="0" fill="#FFFFFF" d="M135,95.2c0,3,2.5,5.4,5.5,5.4h63.4c3,0,5.5-2.4,5.5-5.4
			V31.1c0-3-2.5-5.4-5.5-5.4h-63.4c-3,0-5.5,2.4-5.5,5.4V95.2z"/>
		<path id="path28" inkscape:connector-curvature="0" fill="#FFFFFF" d="M157.6,37.9v33.8h-11.2V37.9H157.6z M152,76.3
			c3.9,0,6.4,2.6,6.4,5.8c-0.1,3.3-2.4,5.8-6.3,5.8c-3.8,0-6.4-2.5-6.4-5.8C145.7,78.9,148.1,76.3,152,76.3L152,76.3L152,76.3z"/>
		<path id="path30" inkscape:connector-curvature="0" fill="#FFFFFF" d="M163.8,37.9H175v18.9c0,1,0.1,2,0.4,2.7
			c0.8,2,2.7,4.1,5.8,4.1c4.1,0,5.7-3.1,5.7-7.6V37.9h11.2v19.4c0,10.4-5.5,15.2-12.9,15.2c-6.1,0-8.7-3.4-10.2-5.7h0.1v4.9h-11.2
			C163.9,68.5,163.8,37.9,163.8,37.9L163.8,37.9z"/>
	</g>
</g>
</svg>
