<?xml version="1.0" encoding="utf-8"?>
<!-- Generator: Adobe Illustrator 18.0.0, SVG Export Plug-In . SVG Version: 6.00 Build 0)  -->
<!DOCTYPE svg PUBLIC "-//W3C//DTD SVG 1.1//EN" "http://www.w3.org/Graphics/SVG/1.1/DTD/svg11.dtd">
<svg version="1.1" id="Layer_1" xmlns="http://www.w3.org/2000/svg" xmlns:xlink="http://www.w3.org/1999/xlink" x="0px" y="0px"
	 viewBox="0 0 100 100" enable-background="new 0 0 100 100" xml:space="preserve">
<path fill="#2ECC71" d="M71.9,8c0-1.8-1.4-3.2-3.2-3.2c-1.8,0-3.2,1.4-3.2,3.2v12.6c0,1.8,1.4,3.2,3.2,3.2c1.8,0,3.2-1.4,3.2-3.2V8z
	"/>
<path fill="#2ECC71" d="M78.8,15.3h-4.3v5.4c0,3.2-2.6,5.8-5.8,5.8c-3.2,0-5.8-2.6-5.8-5.8v-5.4H36.3v5.4c0,3.2-2.6,5.8-5.8,5.8
	s-5.8-2.6-5.8-5.8v-5.4h-4.4c-4.9,0-8.9,4-9,8.9V83c0,4.9,4,8.9,9,8.9h58.5c4.9,0,8.9-4,9-8.9V24.2C87.8,19.3,83.8,15.3,78.8,15.3z
	 M80.4,83c0,0.8-0.7,1.5-1.5,1.5H20.3c-0.9,0-1.5-0.7-1.5-1.5V36h61.6V83z"/>
<path fill="#2ECC71" d="M33.7,8c0-1.8-1.4-3.2-3.2-3.2c-1.8,0-3.2,1.4-3.2,3.2v12.6c0,1.8,1.4,3.2,3.2,3.2c1.8,0,3.2-1.4,3.2-3.2V8z
	"/>
<g>
	<g>
		<rect x="65.9" y="41.5" fill="#2ECC71" width="6.8" height="7"/>
	</g>
	<g>
		<rect x="56.1" y="41.5" fill="#2ECC71" width="6.8" height="7"/>
	</g>
	<g>
		<rect x="46.2" y="41.5" fill="#2ECC71" width="6.8" height="7"/>
	</g>
	<g>
		<rect x="65.9" y="51.3" fill="#2ECC71" width="6.8" height="7"/>
	</g>
	<g>
		<rect x="56.1" y="51.3" fill="#2ECC71" width="6.8" height="7"/>
	</g>
	<g>
		<rect x="46.2" y="51.3" fill="#2ECC71" width="6.8" height="7"/>
	</g>
	<g>
		<rect x="36.3" y="51.3" fill="#2ECC71" width="6.8" height="7"/>
	</g>
	<g>
		<rect x="26.4" y="51.3" fill="#2ECC71" width="6.8" height="7"/>
	</g>
	<g>
		<rect x="65.9" y="61.1" fill="#2ECC71" width="6.8" height="7"/>
	</g>
	<g>
		<rect x="56.1" y="61.1" fill="#2ECC71" width="6.8" height="7"/>
	</g>
	<g>
		<rect x="46.2" y="61.1" fill="#2ECC71" width="6.8" height="7"/>
	</g>
	<g>
		<rect x="36.3" y="61.1" fill="#2ECC71" width="6.8" height="7"/>
	</g>
	<g>
		<rect x="26.4" y="61.1" fill="#2ECC71" width="6.8" height="7"/>
	</g>
	<g>
		<rect x="56.1" y="70.9" fill="#2ECC71" width="6.8" height="7"/>
	</g>
	<g>
		<rect x="46.2" y="70.9" fill="#2ECC71" width="6.8" height="7"/>
	</g>
	<g>
		<rect x="36.3" y="70.9" fill="#2ECC71" width="6.8" height="7"/>
	</g>
	<g>
		<rect x="26.4" y="70.9" fill="#2ECC71" width="6.8" height="7"/>
	</g>
</g>
</svg>
