<?xml version="1.0" encoding="utf-8"?>
<!-- Generator: Adobe Illustrator 18.0.0, SVG Export Plug-In . SVG Version: 6.00 Build 0)  -->
<!DOCTYPE svg PUBLIC "-//W3C//DTD SVG 1.1//EN" "http://www.w3.org/Graphics/SVG/1.1/DTD/svg11.dtd">
<svg version="1.1" id="Layer_1" xmlns="http://www.w3.org/2000/svg" xmlns:xlink="http://www.w3.org/1999/xlink" x="0px" y="0px"
	 viewBox="-101.7 -68.9 176.7 168.3" enable-background="new -101.7 -68.9 176.7 168.3" xml:space="preserve">
<path fill="#166638" d="M52.3,11.4c-5.8,7.5-14.8,12.4-25,12.4c-10.3,0-19.4-5-25.2-12.7c-7.8,10.4-12.8,24.1-12.8,34.1
	c0,10.9,16.8,19.7,37.5,19.7c20.7,0,37.5-8.8,37.5-19.7C64.3,34.4,59.7,21.4,52.3,11.4z"/>
<path fill="#166638" d="M53.7-8c0,14.6-11.8,26.5-26.5,26.5C12.6,18.5,0.8,6.7,0.8-8c0-14.6,11.9-26.5,26.5-26.5
	C41.9-34.5,53.7-22.6,53.7-8z"/>
<path fill="#166638" d="M-27.9,11.4c-5.8,7.5-14.8,12.4-25,12.4c-10.3,0-19.4-5-25.2-12.7c-7.8,10.4-12.8,24.1-12.8,34.1
	c0,10.9,16.8,19.7,37.5,19.7c20.7,0,37.5-8.8,37.5-19.7C-15.9,34.4-20.5,21.4-27.9,11.4z"/>
<path fill="#166638" d="M-26.4-8c0,14.6-11.8,26.5-26.5,26.5C-67.5,18.5-79.4,6.7-79.4-8c0-14.6,11.9-26.5,26.5-26.5
	C-38.2-34.5-26.4-22.6-26.4-8z"/>
</svg>
