<?xml version="1.0" encoding="utf-8"?>
<!-- Generator: Adobe Illustrator 18.0.0, SVG Export Plug-In . SVG Version: 6.00 Build 0)  -->
<!DOCTYPE svg PUBLIC "-//W3C//DTD SVG 1.1//EN" "http://www.w3.org/Graphics/SVG/1.1/DTD/svg11.dtd">
<svg version="1.1" id="Layer_1" xmlns="http://www.w3.org/2000/svg" xmlns:xlink="http://www.w3.org/1999/xlink" x="0px" y="0px"
	 viewBox="0 0 100 77" enable-background="new 0 0 100 77" xml:space="preserve">
<path fill="#E74C3C" d="M50,32c-7.2,0-13,5.8-13,13s5.8,13,13,13s13-5.8,13-13S57.2,32,50,32z"/>
<path fill="#E74C3C" d="M87,13H72c0-7.2-5.8-13-13-13H41c-7.2,0-13,5.8-13,13H13C5.8,13,0,18.8,0,26v38c0,7.2,5.8,13,13,13h74
	c7.2,0,13-5.8,13-13V26C100,18.8,94.2,13,87,13z M50,68c-12.7,0-23-10.3-23-23s10.3-23,23-23s23,10.3,23,23S62.7,68,50,68z"/>
</svg>
