<?xml version="1.0" encoding="utf-8"?>
<!-- Generator: Adobe Illustrator 18.0.0, SVG Export Plug-In . SVG Version: 6.00 Build 0)  -->
<!DOCTYPE svg PUBLIC "-//W3C//DTD SVG 1.1//EN" "http://www.w3.org/Graphics/SVG/1.1/DTD/svg11.dtd">
<svg version="1.1" id="Layer_1" xmlns="http://www.w3.org/2000/svg" xmlns:xlink="http://www.w3.org/1999/xlink" x="0px" y="0px"
	 viewBox="0 0 80 100" enable-background="new 0 0 80 100" xml:space="preserve">
<rect x="36" y="26" fill="#E74C3C" width="8" height="62"/>
<rect x="52" y="26" fill="#E74C3C" width="8" height="62"/>
<rect x="20" y="26" fill="#E74C3C" width="8" height="62"/>
<path fill="#E74C3C" d="M68,10h-7V9c0-5.4-4-9-10-9H29c-6,0-10,3.6-10,9v1h-7C5.4,10,0,15.4,0,22h4v66c0,6.6,5.4,12,12,12h10h28h10
	c6.6,0,12-5.4,12-12V22h4C80,15.4,74.6,10,68,10z M25,9c0-2,1.3-3,4-3h22c2.7,0,4,1,4,3v1H25V9z M64,92H54H26H16c-2.2,0-4-1.8-4-4
	V22h56v66C68,90.2,66.2,92,64,92z"/>
</svg>
