<?xml version="1.0" encoding="utf-8"?>
<!-- Generator: Adobe Illustrator 18.0.0, SVG Export Plug-In . SVG Version: 6.00 Build 0)  -->
<!DOCTYPE svg PUBLIC "-//W3C//DTD SVG 1.1//EN" "http://www.w3.org/Graphics/SVG/1.1/DTD/svg11.dtd">
<svg version="1.1" id="Layer_1" xmlns="http://www.w3.org/2000/svg" xmlns:xlink="http://www.w3.org/1999/xlink" x="0px" y="0px"
	 viewBox="0 0 32 32" enable-background="new 0 0 32 32" xml:space="preserve">
<path id="Cloud" fill="#2ECC71" d="M24.8,14.5c0-0.2,0-0.4,0-0.6c0-3.5-2.8-6.2-6.2-6.2c-2.7,0-5,1.7-5.8,4.1
	c-0.6-0.6-1.4-1.1-2.4-1.1c-1.8,0-3.2,1.4-3.2,3.2c0,0.2,0,0.4,0.1,0.6c-2.4,0.4-4.2,2.4-4.2,4.9c0,2.8,2.2,5,5,5h15.9
	c2.8,0,5-2.2,5-5C28.9,16.9,27.2,14.9,24.8,14.5z"/>
</svg>
