<?xml version="1.0" encoding="utf-8"?>
<!-- Generator: Adobe Illustrator 18.0.0, SVG Export Plug-In . SVG Version: 6.00 Build 0)  -->
<!DOCTYPE svg PUBLIC "-//W3C//DTD SVG 1.1//EN" "http://www.w3.org/Graphics/SVG/1.1/DTD/svg11.dtd">
<svg version="1.1" id="Layer_1" xmlns="http://www.w3.org/2000/svg" xmlns:xlink="http://www.w3.org/1999/xlink" x="0px" y="0px"
	 viewBox="0 0 100 75" enable-background="new 0 0 100 75" xml:space="preserve">
<path fill="#939393" d="M50,12.5c34.6,0,37.5,12.9,37.5,25c0,4.2-1.1,8.8-2.3,12.5H43.8c-14.7,0-21.1,0.6-28.1,5.5
	c-2.9-8-4.8-18.9-1.2-27.6C18.7,17.7,30.6,12.5,50,12.5 M50,0C-19.9,0,0,62.5,12.5,75C25,62.5,25,62.5,43.8,62.5h49.8
	c0,0,6.4-12.5,6.4-25C100,6.2,75,0,50,0L50,0z"/>
</svg>
