<?xml version="1.0" encoding="utf-8"?>
<!-- Generator: Adobe Illustrator 18.0.0, SVG Export Plug-In . SVG Version: 6.00 Build 0)  -->
<!DOCTYPE svg PUBLIC "-//W3C//DTD SVG 1.1//EN" "http://www.w3.org/Graphics/SVG/1.1/DTD/svg11.dtd">
<svg version="1.1" id="Layer_1" xmlns="http://www.w3.org/2000/svg" xmlns:xlink="http://www.w3.org/1999/xlink" x="0px" y="0px"
	 viewBox="56.2 151.3 496.2 455.5" enable-background="new 56.2 151.3 496.2 455.5" xml:space="preserve">
<g>
	<path fill="#939393" d="M491.4,285.8h-83.8v-73.4c0-26.9-22-49-49-49h-44.1c-17.7,0-34.3,9.8-42.8,25.7l-54.5,100.4
		c-5.5-2.4-11.6-3.7-18.4-3.7h-76.5c-26.9,0-49,22-49,49v208.1c0,26.9,22,49,49,49h76.5c22,0,40.4-14.1,46.5-33.7l76.5,30.6
		c5.5,2.4,11.6,3.7,17.7,3.7h151.2c26.9,0,49-22,49-49V334.8C540.4,307.9,518.4,285.8,491.4,285.8z M122.4,542.9V334.8h75.9
		c0,0.6,0,1.2,0,1.2v170.1c0,2.4,0,4.3,0.6,6.7v30H122.4z M491.4,542.9H340.3l-92.4-36.7V334.8l66.7-122.4h44.1v122.4h132.8V542.9z"
		/>
	<circle fill="#939393" cx="161.6" cy="501.3" r="24.5"/>
</g>
</svg>
