<?xml version="1.0" encoding="utf-8"?>
<!-- Generator: Adobe Illustrator 18.0.0, SVG Export Plug-In . SVG Version: 6.00 Build 0)  -->
<!DOCTYPE svg PUBLIC "-//W3C//DTD SVG 1.1//EN" "http://www.w3.org/Graphics/SVG/1.1/DTD/svg11.dtd">
<svg version="1.1" id="Layer_1" xmlns="http://www.w3.org/2000/svg" xmlns:xlink="http://www.w3.org/1999/xlink" x="0px" y="0px"
	 viewBox="0 0 100 100" enable-background="new 0 0 100 100" xml:space="preserve">
<g>
	<path fill="#939393" d="M80.3,32H66.6V20c0-4.4-3.6-8-8-8h-7.2c-2.9,0-5.6,1.6-7,4.2l-8.9,16.4c-0.9-0.4-1.9-0.6-3-0.6H20
		c-4.4,0-8,3.6-8,8v34c0,4.4,3.6,8,8,8h12.5c3.6,0,6.6-2.3,7.6-5.5l12.5,5c0.9,0.4,1.9,0.6,2.9,0.6h24.7c4.4,0,8-3.6,8-8V40
		C88.3,35.6,84.7,32,80.3,32z M20,74V40h12.4c0,0.1,0,0.2,0,0.2V68c0,0.4,0,0.7,0.1,1.1V74H20z M80.3,74H55.6l-15.1-6v-28L51.4,20
		h7.2v20h21.7V74z"/>
	<circle fill="#939393" cx="26.4" cy="67.2" r="4"/>
</g>
</svg>
