<?xml version="1.0" encoding="utf-8"?>
<!-- Generator: Adobe Illustrator 18.0.0, SVG Export Plug-In . SVG Version: 6.00 Build 0)  -->
<!DOCTYPE svg PUBLIC "-//W3C//DTD SVG 1.1//EN" "http://www.w3.org/Graphics/SVG/1.1/DTD/svg11.dtd">
<svg version="1.1" id="Layer_1" xmlns="http://www.w3.org/2000/svg" xmlns:xlink="http://www.w3.org/1999/xlink" x="0px" y="0px"
	 viewBox="0 20 612 749" enable-background="new 0 20 612 749" xml:space="preserve">
<g>
	<path fill="#2ECC71" d="M482.3,235.4c138.3-25.8,138.6,101.2,47.5,154.9c-31.2,18.1-90.5,42.7-90.5,42.7
		c124.1-25.5,114,94.7,52.8,136.8C359.4,661.6,32.9,731.1,32.9,731.1S81,244.3,355,87.9c125.8-72.1,217-62,238.9,3
		C624.8,181.1,482.3,235.4,482.3,235.4z"/>
	<path fill="#26AB5F" d="M511.7,227.1c5.6-0.3,11-0.3,16.6,0.3c8,0.6,15.7,2.1,23.4,4.5c7.7,2.4,15.1,5.9,22,11
		c6.5,5,12.5,11.3,16.3,18.7c4.2,7.4,6.5,15.4,7.7,23.4c0.9,8.3,0.6,16.3-0.9,24.3s-3.9,15.7-7.1,23.2c-6.5,14.8-15.7,27.9-27,39.2
		c-5.6,5.6-11.6,10.7-18.1,15.4c-6.2,4.7-13.4,8.9-19.9,12.5c-6.8,3.9-13.7,7.1-20.5,10.7c-6.8,3.3-13.9,6.5-20.8,9.8
		c-13.9,6.5-27.9,12.5-42.1,18.4l-3.6-11.3l0,0c15.1-3,30.6-4.7,46.3-3c8,0.9,15.7,3,23.4,6.2c7.4,3.3,14.5,8.3,20.2,14.5
		c5.6,6.2,9.8,13.9,12.2,22c2.4,8,3.3,16.3,3,24.3c-0.6,16.3-5.3,31.8-12.5,46c-7.4,14.2-17.5,27-30.3,37.1l-2.4,1.8l-0.6,0.6
		l-0.9,0.6l-1.2,0.9l-4.7,3.3c-3.3,2.1-5.9,4.2-9.5,6.2L471,594c-3.3,2.1-6.5,3.9-9.8,5.6c-13.1,7.7-26.7,14.5-40.1,21.4
		c-13.7,6.5-27.3,13.1-41.3,19c-6.8,3-13.9,5.9-20.8,8.9c-6.8,3-13.9,5.6-21.1,8.6c-13.9,5.6-28.2,11-42.1,16
		c-14.2,5-28.2,10.1-42.4,15.1c-14.2,4.7-28.5,9.5-42.7,14.2c-28.5,9.2-57.3,17.8-86.1,26.4c-14.5,4.2-28.8,8.3-43.3,12.5
		c-14.5,3.9-28.8,8-43.9,11.9l-28.5,6.5l2.4-31.5l0,0c0.9-6.8,1.8-13.1,2.7-19.6c0.9-6.5,2.1-12.8,3.3-19c2.1-12.8,4.5-25.2,7.1-38
		c5-25.2,11-50.2,17.2-75.1c12.8-49.9,27.9-98.8,46-146.9s39.5-95,65-139.8c12.8-22.6,26.7-44.2,41.6-65c14.8-21.1,31.5-41,49-60
		c17.8-19,36.8-36.5,57.3-52.5c20.5-15.7,42.7-29.7,65.6-41.6c22.9-11.9,46.6-22.3,71.5-30s50.8-12.8,77.5-11.3
		c13.4,0.6,26.7,3.3,39.5,8.3c12.8,5.3,24.3,13.7,32.9,24.6c8.6,11,13.9,24,16.6,37.4s1.5,27.6-3,40.7s-11.6,24.3-20.2,34.4
		c-8.6,10.1-18.4,19-28.5,26.7c-10.4,7.7-21.4,14.8-32.6,21.1C516.7,224.7,514.4,225.9,511.7,227.1z M480.5,230.7
		c11.3-4.7,22.6-10.4,33.2-16.3c10.7-6.2,21.1-13.1,30.9-20.5c9.8-7.7,18.7-16,26.4-25.5c7.7-9.5,13.9-19.9,17.5-30.9
		c3.6-11.3,4.2-22.9,1.8-34.4c-2.4-11.6-7.1-22.3-14.5-31.2c-7.1-8.9-16.9-15.4-27.6-19.6c-10.7-4.2-22.6-6.2-34.7-6.5
		c-24-0.6-48.4,4.5-71.8,12.2c-23.4,7.7-46,18.1-68,30c-22,11.9-42.4,25.5-61.7,41c-19,15.7-37.1,32.9-53.4,51.6
		c-16.3,18.7-31.5,38.3-45.1,59.1c-13.7,20.8-26.4,42.1-38,64.1c-23.2,44.2-42.1,90.5-58.2,137.7S88.1,537,77.8,586
		c-5.3,24.3-9.8,49-13.7,73.6c-2.1,12.5-3.9,24.6-5.3,37.1c-0.9,6.2-1.5,12.5-2.4,18.4c-0.6,5.9-1.5,12.5-1.8,18.1l0,0l-26.7-24
		c14.2-2.7,29.1-5.3,43.3-8.3c14.5-3,29.1-5.9,43.6-9.2c14.5-3.3,28.8-6.5,43.3-10.1s28.8-7.1,43-10.7c14.2-3.6,28.8-7.7,43-11.6
		c14.2-3.9,28.5-8.3,42.7-12.5c14.2-4.5,28.2-8.9,42.1-13.7c7.1-2.4,13.9-4.7,21.1-7.4c7.1-2.4,13.9-5,20.8-7.7
		c13.9-5,27.6-10.7,41-16.6c13.4-5.9,26.7-12.2,39.8-19c3.3-1.8,6.5-3.3,9.8-5l9.5-5.3c3.3-1.8,6.2-3.9,9.5-5.6l4.7-3l1.2-0.9
		l0.3-0.3l0,0c0,0-0.3,0.3,0,0l0.6-0.3l2.1-1.5c11-8,20.2-18.7,27-30.6c6.8-12.2,11-25.8,11.9-39.2c0.9-13.7-2.4-27.3-10.7-37.1
		c-4.2-5-9.5-8.9-15.4-11.9c-5.9-2.7-12.8-4.5-19.6-5.3c-13.9-1.8-28.5-0.6-42.4,2.4l0,0l-56.1,10.4l52.5-21.7
		c13.9-5.6,27.9-11.9,41.8-18.1c6.8-3.3,13.7-6.2,20.5-9.5c6.8-3.3,13.7-6.8,20.2-10.4c6.8-3.6,13.1-7.4,19-11.6
		c5.9-4.2,11.6-8.9,16.6-14.2c10.4-10.4,19-22.3,24.9-35.6c3-6.5,5-13.7,6.5-20.5c1.2-7.1,1.5-14.2,0.9-21.1
		c-0.9-6.8-3-13.7-6.2-19.6c-3.3-5.9-8-11.3-13.7-15.4c-5.6-4.2-11.9-7.4-18.7-9.5c-6.8-2.1-13.9-3.6-21.4-4.2
		c-7.4-0.6-14.5-0.6-22,0c-3.6,0.3-7.4,0.6-11,1.2c-3.6,0.6-7.4,1.2-11,1.8l-44.5,7.7L480.5,230.7z"/>
</g>
</svg>
