<?xml version="1.0" encoding="utf-8"?>
<!-- Generator: Adobe Illustrator 18.0.0, SVG Export Plug-In . SVG Version: 6.00 Build 0)  -->
<!DOCTYPE svg PUBLIC "-//W3C//DTD SVG 1.1//EN" "http://www.w3.org/Graphics/SVG/1.1/DTD/svg11.dtd">
<svg version="1.1" id="Layer_1" xmlns="http://www.w3.org/2000/svg" xmlns:xlink="http://www.w3.org/1999/xlink" x="0px" y="0px"
	 viewBox="0 0 100 84.7" enable-background="new 0 0 100 84.7" xml:space="preserve">
<g>
	<linearGradient id="SVGID_1_" gradientUnits="userSpaceOnUse" x1="-0.5" y1="42.3525" x2="86.933" y2="42.3525">
		<stop  offset="0" style="stop-color:#FFFFFF"/>
		<stop  offset="1" style="stop-color:#000000"/>
	</linearGradient>
	<path fill="#FFFFFF" stroke="url(#SVGID_1_)" stroke-miterlimit="10" d="M76.8,71c0,2.4-2,4.3-4.4,4.3H14c-2.4,0-4.4-1.9-4.4-4.3
		V13.7c0-2.4,2-4.3,4.4-4.3h55.1L81,0.1c-0.1,0-0.2-0.1-0.3-0.1h-75C2.6,0,0,2.4,0,5.5v73.6c0,3.1,2.6,5.6,5.7,5.6h75
		c3.1,0,5.7-2.5,5.7-5.6V37.8l-9.6,7.5C76.8,45.3,76.8,71,76.8,71z"/>
	<linearGradient id="SVGID_2_" gradientUnits="userSpaceOnUse" x1="85.1339" y1="8.2545" x2="100.7142" y2="8.2545">
		<stop  offset="0" style="stop-color:#FFFFFF"/>
		<stop  offset="1" style="stop-color:#000000"/>
	</linearGradient>
	<polygon fill="#FFFFFF" stroke="url(#SVGID_2_)" stroke-miterlimit="10" points="90.1,1.2 85.8,5.2 95.7,15.3 100,11.3 	"/>
	<linearGradient id="SVGID_3_" gradientUnits="userSpaceOnUse" x1="40.3128" y1="32.688" x2="92.3622" y2="32.688">
		<stop  offset="0" style="stop-color:#FFFFFF"/>
		<stop  offset="1" style="stop-color:#000000"/>
	</linearGradient>
	<polygon fill="#FFFFFF" stroke="url(#SVGID_3_)" stroke-miterlimit="10" points="41,46.8 50.8,56.8 91.6,18.6 81.8,8.6 	"/>
	<linearGradient id="SVGID_4_" gradientUnits="userSpaceOnUse" x1="31.5888" y1="57.8632" x2="46.5262" y2="57.8632">
		<stop  offset="0" style="stop-color:#FFFFFF"/>
		<stop  offset="1" style="stop-color:#000000"/>
	</linearGradient>
	<polygon fill="#FFFFFF" stroke="url(#SVGID_4_)" stroke-miterlimit="10" points="32.1,64.4 42.1,64.7 42.3,64.7 45.8,61.3 36,51.3 
		36,51.3 32.4,54.6 	"/>
</g>
</svg>
