<?xml version="1.0" encoding="utf-8"?>
<!-- Generator: Adobe Illustrator 18.0.0, SVG Export Plug-In . SVG Version: 6.00 Build 0)  -->
<!DOCTYPE svg PUBLIC "-//W3C//DTD SVG 1.1//EN" "http://www.w3.org/Graphics/SVG/1.1/DTD/svg11.dtd">
<svg version="1.1" id="Layer_1" xmlns="http://www.w3.org/2000/svg" xmlns:xlink="http://www.w3.org/1999/xlink" x="0px" y="0px"
	 viewBox="0 0 75.1 99.4" enable-background="new 0 0 75.1 99.4" xml:space="preserve">
<path fill="#2ECC71" d="M63,45.9c-5.8,7.5-14.8,12.4-25,12.4c-10.3,0-19.4-5-25.2-12.7C5,56,0,69.7,0,79.7
	c0,10.9,16.8,19.7,37.5,19.7c20.7,0,37.5-8.8,37.5-19.7C75.1,68.8,70.4,55.8,63,45.9z"/>
<path fill="#2ECC71" d="M64.5,26.5C64.5,41.1,52.7,53,38,53c-14.6,0-26.5-11.9-26.5-26.5C11.5,11.9,23.4,0,38,0
	C52.7,0,64.5,11.9,64.5,26.5z"/>
</svg>
