<?xml version="1.0" encoding="utf-8"?>
<!-- Generator: Adobe Illustrator 18.0.0, SVG Export Plug-In . SVG Version: 6.00 Build 0)  -->
<!DOCTYPE svg PUBLIC "-//W3C//DTD SVG 1.1//EN" "http://www.w3.org/Graphics/SVG/1.1/DTD/svg11.dtd">
<svg version="1.1" id="Your_Icon" xmlns="http://www.w3.org/2000/svg" xmlns:xlink="http://www.w3.org/1999/xlink" x="0px" y="0px"
	 viewBox="0 0 100 100" enable-background="new 0 0 100 100" xml:space="preserve">
<path fill="#2ECC71" d="M99.3,89.2L68.1,58c4.1-6.1,6.2-13.2,6.2-20.6c0-9.9-3.9-19.3-10.9-26.3c-7-7-16.3-10.9-26.3-10.9
	S17.9,4,10.9,11.1C3.9,18.1,0,27.4,0,37.3s3.9,19.3,10.9,26.3s16.3,10.9,26.3,10.9c7.5,0,14.7-2.2,20.8-6.4l31.3,31.3
	c1.1,1.1,3,0.8,4.3-0.5l5.3-5.3C100.2,92.2,100.4,90.3,99.3,89.2z M37.1,64.4c-14.9,0-27.1-12.2-27.1-27.1s12.2-27.1,27.1-27.1
	s27.1,12.2,27.1,27.1S52.1,64.4,37.1,64.4z"/>
</svg>
